<svg xmlns="http://www.w3.org/2000/svg" viewBox="0 0 400 250">
  <rect width="400" height="250" fill="#ffffff"/>

  <!-- Title -->
  <text x="200" y="25" text-anchor="middle" font-family="sans-serif" font-size="14" font-weight="bold" fill="#1f2937">All Countries: GDP Over Time</text>

  <!-- Axes -->
  <line x1="60" y1="200" x2="370" y2="200" stroke="#374151" stroke-width="1"/>
  <line x1="60" y1="200" x2="60" y2="40" stroke="#374151" stroke-width="1"/>

  <!-- Y-axis label -->
  <text x="20" y="120" text-anchor="middle" font-family="sans-serif" font-size="11" fill="#6b7280" transform="rotate(-90, 20, 120)">Log10(GDP)</text>

  <!-- X-axis label -->
  <text x="215" y="235" text-anchor="middle" font-family="sans-serif" font-size="11" fill="#6b7280">Year</text>

  <!-- Scatter points (semi-transparent, showing density pattern) -->
  <!-- Early years - lower GDP, more spread -->
  <circle cx="80" cy="180" r="2" fill="#3b82f6" opacity="0.3"/>
  <circle cx="85" cy="160" r="2" fill="#3b82f6" opacity="0.3"/>
  <circle cx="90" cy="170" r="2" fill="#3b82f6" opacity="0.3"/>
  <circle cx="82" cy="145" r="2" fill="#3b82f6" opacity="0.3"/>
  <circle cx="88" cy="155" r="2" fill="#3b82f6" opacity="0.3"/>
  <circle cx="95" cy="140" r="2" fill="#3b82f6" opacity="0.3"/>
  <circle cx="92" cy="175" r="2" fill="#3b82f6" opacity="0.3"/>
  <circle cx="78" cy="130" r="2" fill="#3b82f6" opacity="0.3"/>
  <circle cx="100" cy="165" r="2" fill="#3b82f6" opacity="0.3"/>
  <circle cx="105" cy="150" r="2" fill="#3b82f6" opacity="0.3"/>

  <!-- Mid years - spreading upward -->
  <circle cx="140" cy="175" r="2" fill="#3b82f6" opacity="0.3"/>
  <circle cx="145" cy="155" r="2" fill="#3b82f6" opacity="0.3"/>
  <circle cx="150" cy="165" r="2" fill="#3b82f6" opacity="0.3"/>
  <circle cx="142" cy="135" r="2" fill="#3b82f6" opacity="0.3"/>
  <circle cx="148" cy="145" r="2" fill="#3b82f6" opacity="0.3"/>
  <circle cx="155" cy="120" r="2" fill="#3b82f6" opacity="0.3"/>
  <circle cx="152" cy="170" r="2" fill="#3b82f6" opacity="0.3"/>
  <circle cx="138" cy="110" r="2" fill="#3b82f6" opacity="0.3"/>
  <circle cx="160" cy="158" r="2" fill="#3b82f6" opacity="0.3"/>
  <circle cx="165" cy="140" r="2" fill="#3b82f6" opacity="0.3"/>
  <circle cx="143" cy="100" r="2" fill="#3b82f6" opacity="0.3"/>
  <circle cx="158" cy="128" r="2" fill="#3b82f6" opacity="0.3"/>

  <!-- Later years - more upward, wider spread -->
  <circle cx="200" cy="170" r="2" fill="#3b82f6" opacity="0.3"/>
  <circle cx="205" cy="145" r="2" fill="#3b82f6" opacity="0.3"/>
  <circle cx="210" cy="158" r="2" fill="#3b82f6" opacity="0.3"/>
  <circle cx="202" cy="120" r="2" fill="#3b82f6" opacity="0.3"/>
  <circle cx="208" cy="135" r="2" fill="#3b82f6" opacity="0.3"/>
  <circle cx="215" cy="100" r="2" fill="#3b82f6" opacity="0.3"/>
  <circle cx="212" cy="165" r="2" fill="#3b82f6" opacity="0.3"/>
  <circle cx="198" cy="88" r="2" fill="#3b82f6" opacity="0.3"/>
  <circle cx="220" cy="150" r="2" fill="#3b82f6" opacity="0.3"/>
  <circle cx="225" cy="125" r="2" fill="#3b82f6" opacity="0.3"/>
  <circle cx="203" cy="75" r="2" fill="#3b82f6" opacity="0.3"/>
  <circle cx="218" cy="110" r="2" fill="#3b82f6" opacity="0.3"/>
  <circle cx="207" cy="178" r="2" fill="#3b82f6" opacity="0.3"/>
  <circle cx="222" cy="95" r="2" fill="#3b82f6" opacity="0.3"/>

  <!-- Recent years - highest spread -->
  <circle cx="260" cy="165" r="2" fill="#3b82f6" opacity="0.3"/>
  <circle cx="265" cy="135" r="2" fill="#3b82f6" opacity="0.3"/>
  <circle cx="270" cy="150" r="2" fill="#3b82f6" opacity="0.3"/>
  <circle cx="262" cy="105" r="2" fill="#3b82f6" opacity="0.3"/>
  <circle cx="268" cy="120" r="2" fill="#3b82f6" opacity="0.3"/>
  <circle cx="275" cy="80" r="2" fill="#3b82f6" opacity="0.3"/>
  <circle cx="272" cy="160" r="2" fill="#3b82f6" opacity="0.3"/>
  <circle cx="258" cy="65" r="2" fill="#3b82f6" opacity="0.3"/>
  <circle cx="280" cy="140" r="2" fill="#3b82f6" opacity="0.3"/>
  <circle cx="285" cy="110" r="2" fill="#3b82f6" opacity="0.3"/>
  <circle cx="263" cy="55" r="2" fill="#3b82f6" opacity="0.3"/>
  <circle cx="278" cy="95" r="2" fill="#3b82f6" opacity="0.3"/>
  <circle cx="267" cy="175" r="2" fill="#3b82f6" opacity="0.3"/>
  <circle cx="282" cy="72" r="2" fill="#3b82f6" opacity="0.3"/>
  <circle cx="273" cy="88" r="2" fill="#3b82f6" opacity="0.3"/>

  <!-- Most recent years -->
  <circle cx="320" cy="160" r="2" fill="#3b82f6" opacity="0.3"/>
  <circle cx="325" cy="125" r="2" fill="#3b82f6" opacity="0.3"/>
  <circle cx="330" cy="142" r="2" fill="#3b82f6" opacity="0.3"/>
  <circle cx="322" cy="95" r="2" fill="#3b82f6" opacity="0.3"/>
  <circle cx="328" cy="110" r="2" fill="#3b82f6" opacity="0.3"/>
  <circle cx="335" cy="65" r="2" fill="#3b82f6" opacity="0.3"/>
  <circle cx="332" cy="155" r="2" fill="#3b82f6" opacity="0.3"/>
  <circle cx="318" cy="50" r="2" fill="#3b82f6" opacity="0.3"/>
  <circle cx="340" cy="130" r="2" fill="#3b82f6" opacity="0.3"/>
  <circle cx="345" cy="100" r="2" fill="#3b82f6" opacity="0.3"/>
  <circle cx="323" cy="45" r="2" fill="#3b82f6" opacity="0.3"/>
  <circle cx="338" cy="85" r="2" fill="#3b82f6" opacity="0.3"/>
  <circle cx="327" cy="170" r="2" fill="#3b82f6" opacity="0.3"/>
  <circle cx="342" cy="60" r="2" fill="#3b82f6" opacity="0.3"/>
  <circle cx="333" cy="78" r="2" fill="#3b82f6" opacity="0.3"/>
  <circle cx="350" cy="55" r="2" fill="#3b82f6" opacity="0.3"/>
  <circle cx="355" cy="90" r="2" fill="#3b82f6" opacity="0.3"/>
  <circle cx="360" cy="120" r="2" fill="#3b82f6" opacity="0.3"/>

  <!-- Y-axis ticks -->
  <text x="55" y="200" text-anchor="end" font-family="sans-serif" font-size="9" fill="#6b7280">7</text>
  <text x="55" y="160" text-anchor="end" font-family="sans-serif" font-size="9" fill="#6b7280">9</text>
  <text x="55" y="120" text-anchor="end" font-family="sans-serif" font-size="9" fill="#6b7280">11</text>
  <text x="55" y="80" text-anchor="end" font-family="sans-serif" font-size="9" fill="#6b7280">13</text>
  <text x="55" y="50" text-anchor="end" font-family="sans-serif" font-size="9" fill="#6b7280">14</text>

  <!-- X-axis ticks -->
  <text x="80" y="215" text-anchor="middle" font-family="sans-serif" font-size="9" fill="#6b7280">1970</text>
  <text x="160" y="215" text-anchor="middle" font-family="sans-serif" font-size="9" fill="#6b7280">1990</text>
  <text x="240" y="215" text-anchor="middle" font-family="sans-serif" font-size="9" fill="#6b7280">2010</text>
  <text x="340" y="215" text-anchor="middle" font-family="sans-serif" font-size="9" fill="#6b7280">2025</text>
</svg>